<svg xmlns="http://www.w3.org/2000/svg" width="1024" height="1024" viewBox="0 0 1024 1024" version="1.1"><path d="M 483.500 176.454 C 479.650 177.208, 474.003 178.710, 470.952 179.790 C 467.900 180.870, 463.400 182.764, 460.952 183.998 C 458.503 185.233, 453.800 188.157, 450.500 190.496 L 444.500 194.749 436.983 202.624 C 432.848 206.956, 421.823 219.547, 412.483 230.605 C 403.142 241.663, 387.388 261.013, 377.472 273.605 C 367.557 286.197, 353.782 304.150, 346.860 313.500 C 339.939 322.850, 327.702 339.996, 319.668 351.602 C 311.633 363.207, 299.663 381.078, 293.067 391.313 C 286.471 401.549, 275.039 419.954, 267.663 432.212 C 260.287 444.470, 250.135 461.925, 245.104 471 C 240.073 480.075, 230.607 498.075, 224.070 511 C 217.532 523.925, 208.260 543.275, 203.465 554 C 198.670 564.725, 191.476 581.825, 187.478 592 C 183.480 602.175, 177.693 618.150, 174.616 627.500 C 171.540 636.850, 167.476 650.194, 165.585 657.154 C 163.693 664.113, 160.772 676.583, 159.092 684.865 C 157.413 693.146, 155.392 705.002, 154.602 711.211 C 153.812 717.420, 152.875 727.450, 152.520 733.500 L 151.875 744.500 152.907 757.500 L 153.940 770.500 156.038 778.500 L 158.136 786.500 162.553 795.852 L 166.969 805.203 171.437 811.463 L 175.904 817.724 183.150 824.432 L 190.395 831.140 198.330 836.024 L 206.265 840.907 214.733 843.971 L 223.201 847.035 232.350 848.628 L 241.500 850.222 253.500 849.706 L 265.500 849.190 273.500 847.085 L 281.500 844.980 290 840.924 C 294.675 838.694, 300.750 835.461, 303.500 833.741 C 306.250 832.021, 312.325 827.664, 317 824.059 C 321.675 820.454, 330.410 812.779, 336.411 807.003 C 342.411 801.226, 353.442 789.525, 360.924 781 C 368.406 772.475, 384.471 753.575, 396.625 739 C 408.779 724.425, 423.657 707.100, 429.688 700.500 C 435.718 693.900, 444.218 685.295, 448.576 681.378 C 452.934 677.461, 460.033 671.725, 464.351 668.631 C 468.669 665.537, 474.975 661.682, 478.365 660.065 C 481.754 658.447, 488.121 656.133, 492.513 654.922 L 500.500 652.720 511.500 652.787 L 522.500 652.855 530.281 654.894 L 538.063 656.934 546.438 661.084 L 554.813 665.234 563.200 671.529 C 567.814 674.992, 575.960 681.962, 581.304 687.019 C 586.647 692.076, 595.872 701.678, 601.803 708.357 C 607.734 715.036, 624.479 734.675, 639.014 752 L 665.442 783.500 684.971 803.033 L 704.500 822.566 713.500 828.921 L 722.500 835.275 733.500 840.516 C 739.550 843.398, 747.425 846.588, 751 847.605 L 757.500 849.455 774 849.468 L 790.500 849.482 799.440 847.215 L 808.380 844.947 817.647 840.558 C 822.743 838.143, 828.620 834.903, 830.707 833.357 C 832.793 831.811, 836.884 828.551, 839.798 826.111 L 845.095 821.676 851.103 813.703 L 857.111 805.729 860.415 799.115 C 862.232 795.477, 864.889 788.900, 866.321 784.500 C 867.752 780.100, 869.493 773.350, 870.190 769.500 L 871.457 762.500 871.463 742.500 L 871.470 722.500 870.151 713 C 869.425 707.775, 867.715 697.650, 866.350 690.500 C 864.985 683.350, 862.752 673, 861.388 667.500 C 860.023 662, 856.631 649.858, 853.849 640.517 C 851.067 631.177, 845.958 615.877, 842.495 606.517 C 839.032 597.158, 833.280 582.525, 829.713 574 C 826.146 565.475, 819.943 551.300, 815.928 542.500 C 811.913 533.700, 804.283 517.950, 798.973 507.500 C 793.662 497.050, 785.025 480.825, 779.778 471.444 C 774.532 462.063, 765.380 446.313, 759.442 436.444 C 753.503 426.575, 743.496 410.400, 737.204 400.500 C 730.912 390.600, 720.106 374.175, 713.191 364 C 706.276 353.825, 696.581 339.875, 691.648 333 C 686.714 326.125, 676.595 312.400, 669.160 302.500 C 661.726 292.600, 652.267 280.225, 648.141 275 C 644.014 269.775, 635.672 259.425, 629.602 252 C 623.533 244.575, 613.172 232.200, 606.579 224.500 C 599.986 216.800, 591.196 206.964, 587.046 202.643 L 579.500 194.786 573.340 190.370 C 569.952 187.941, 563.877 184.443, 559.840 182.598 C 555.803 180.753, 549.575 178.451, 546 177.483 L 539.500 175.723 515 175.402 L 490.500 175.081 483.500 176.454 M 502.309 250.250 C 497.358 256.438, 488.601 267.800, 482.850 275.500 C 477.098 283.200, 468.100 295.575, 462.854 303 C 457.608 310.425, 447.463 325.275, 440.310 336 C 433.156 346.725, 423.488 361.575, 418.825 369 C 414.161 376.425, 406.715 388.575, 402.276 396 C 397.838 403.425, 388.925 418.950, 382.469 430.500 C 376.013 442.050, 364.967 462.750, 357.921 476.500 C 350.876 490.250, 340.539 511.175, 334.950 523 C 329.362 534.825, 321.283 552.394, 316.997 562.042 C 312.712 571.690, 305.543 588.474, 301.066 599.339 C 296.590 610.205, 289.521 628.186, 285.358 639.297 C 281.195 650.409, 274.885 668.050, 271.335 678.500 C 267.786 688.950, 262.488 705.825, 259.562 716 C 256.636 726.175, 253.912 736.525, 253.507 739 L 252.771 743.500 257.540 736.500 C 260.163 732.650, 266.147 724.100, 270.837 717.500 C 275.528 710.900, 282.743 701, 286.872 695.500 C 291.001 690, 299.690 678.914, 306.180 670.865 C 312.671 662.816, 323.048 650.443, 329.241 643.371 C 335.433 636.298, 347.038 623.984, 355.029 616.006 C 363.019 608.028, 374.719 597.045, 381.029 591.600 C 387.338 586.155, 397.450 578.001, 403.500 573.479 C 409.550 568.958, 418.711 562.705, 423.858 559.585 C 429.005 556.464, 437.105 551.963, 441.858 549.582 C 446.611 547.200, 455 543.570, 460.500 541.515 C 466 539.460, 475.450 536.615, 481.500 535.192 L 492.500 532.606 511.500 532.594 L 530.500 532.582 540.749 534.810 C 546.386 536.035, 555.161 538.416, 560.249 540.102 L 569.500 543.166 581.500 548.992 C 588.100 552.197, 598.168 557.795, 603.872 561.431 C 609.577 565.068, 618.389 571.159, 623.454 574.965 C 628.519 578.772, 638.251 586.802, 645.082 592.809 C 651.912 598.816, 664.475 610.881, 673 619.619 C 681.525 628.358, 692.946 640.681, 698.379 647.004 C 703.812 653.327, 714.209 665.925, 721.482 675 C 728.755 684.075, 738.960 697.350, 744.158 704.500 C 749.357 711.650, 757.605 723.231, 762.487 730.235 C 767.369 737.240, 771.503 742.831, 771.674 742.660 C 771.845 742.489, 770.239 735.408, 768.106 726.924 L 764.228 711.500 756.243 687.500 C 751.851 674.300, 745.211 655.400, 741.486 645.500 C 737.761 635.600, 730.966 618.390, 726.386 607.256 C 721.806 596.122, 713.812 577.447, 708.622 565.756 C 703.431 554.065, 694.619 534.825, 689.038 523 C 683.457 511.175, 673.571 491.150, 667.068 478.500 C 660.565 465.850, 650.644 447.175, 645.021 437 C 639.397 426.825, 629.594 409.725, 623.236 399 C 616.877 388.275, 607.855 373.425, 603.187 366 C 598.519 358.575, 588.844 343.725, 581.688 333 C 574.531 322.275, 564.168 307.200, 558.657 299.500 C 553.146 291.800, 544.582 280.100, 539.625 273.500 C 534.669 266.900, 526.617 256.438, 521.732 250.250 C 516.848 244.063, 512.505 239, 512.082 239 C 511.658 239, 507.261 244.063, 502.309 250.250" stroke="none" fill="#04b2eb" fill-rule="evenodd"/></svg>