<?xml version="1.0" encoding="UTF-8"?>
<svg xmlns="http://www.w3.org/2000/svg" xmlns:xlink="http://www.w3.org/1999/xlink" width="32px" height="32px" viewBox="0 0 32 32" version="1.1">
<g id="surface1">
<path style=" stroke:none;fill-rule:evenodd;fill:rgb(1.568628%,69.803923%,92.156863%);fill-opacity:1;" d="M 15.109375 5.515625 C 14.988281 5.539062 14.8125 5.585938 14.71875 5.617188 C 14.621094 5.652344 14.480469 5.710938 14.40625 5.75 C 14.328125 5.789062 14.179688 5.878906 14.078125 5.953125 L 13.890625 6.085938 L 13.65625 6.332031 C 13.527344 6.46875 13.183594 6.859375 12.890625 7.207031 C 12.597656 7.550781 12.105469 8.15625 11.796875 8.550781 C 11.484375 8.945312 11.054688 9.503906 10.839844 9.796875 C 10.625 10.089844 10.242188 10.625 9.988281 10.988281 C 9.738281 11.351562 9.363281 11.910156 9.160156 12.230469 C 8.953125 12.546875 8.59375 13.125 8.363281 13.507812 C 8.132812 13.890625 7.816406 14.433594 7.660156 14.71875 C 7.503906 15.003906 7.207031 15.566406 7.003906 15.96875 C 6.796875 16.371094 6.507812 16.976562 6.359375 17.3125 C 6.207031 17.648438 5.984375 18.183594 5.859375 18.5 C 5.734375 18.816406 5.554688 19.316406 5.457031 19.609375 C 5.359375 19.902344 5.234375 20.320312 5.175781 20.535156 C 5.117188 20.753906 5.023438 21.144531 4.972656 21.402344 C 4.917969 21.660156 4.855469 22.03125 4.832031 22.226562 C 4.804688 22.417969 4.777344 22.734375 4.765625 22.921875 L 4.746094 23.265625 L 4.777344 23.671875 L 4.8125 24.078125 L 4.875 24.328125 L 4.941406 24.578125 L 5.078125 24.871094 L 5.21875 25.164062 L 5.355469 25.359375 L 5.496094 25.554688 L 5.722656 25.761719 L 5.949219 25.972656 L 6.199219 26.125 L 6.445312 26.277344 L 6.710938 26.375 L 6.976562 26.46875 L 7.546875 26.570312 L 8.296875 26.539062 L 8.796875 26.40625 L 9.0625 26.277344 C 9.207031 26.210938 9.398438 26.109375 9.484375 26.054688 C 9.570312 26 9.761719 25.863281 9.90625 25.75 C 10.050781 25.640625 10.324219 25.398438 10.511719 25.21875 C 10.699219 25.039062 11.046875 24.671875 11.277344 24.40625 C 11.511719 24.140625 12.015625 23.550781 12.394531 23.09375 C 12.773438 22.636719 13.238281 22.097656 13.429688 21.890625 C 13.617188 21.683594 13.882812 21.414062 14.019531 21.292969 C 14.152344 21.171875 14.375 20.992188 14.511719 20.894531 C 14.644531 20.796875 14.84375 20.675781 14.949219 20.628906 C 15.054688 20.578125 15.253906 20.503906 15.390625 20.464844 L 15.640625 20.398438 L 15.984375 20.398438 L 16.328125 20.402344 L 16.570312 20.464844 L 16.816406 20.527344 L 17.078125 20.660156 L 17.339844 20.789062 L 17.601562 20.984375 C 17.746094 21.09375 18 21.3125 18.164062 21.46875 C 18.332031 21.628906 18.621094 21.925781 18.804688 22.136719 C 18.992188 22.34375 19.515625 22.957031 19.96875 23.5 L 20.796875 24.484375 L 21.40625 25.09375 L 22.015625 25.707031 L 22.296875 25.902344 L 22.578125 26.101562 L 22.921875 26.265625 C 23.109375 26.355469 23.355469 26.457031 23.46875 26.488281 L 23.671875 26.546875 L 24.703125 26.546875 L 24.984375 26.476562 L 25.261719 26.40625 L 25.550781 26.265625 C 25.710938 26.191406 25.894531 26.089844 25.960938 26.042969 C 26.023438 25.992188 26.152344 25.890625 26.242188 25.816406 L 26.410156 25.675781 L 26.597656 25.429688 L 26.785156 25.179688 L 26.886719 24.972656 C 26.945312 24.859375 27.027344 24.652344 27.074219 24.515625 C 27.117188 24.378906 27.171875 24.167969 27.195312 24.046875 L 27.234375 23.828125 L 27.234375 22.578125 L 27.191406 22.28125 C 27.167969 22.117188 27.117188 21.800781 27.074219 21.578125 C 27.03125 21.355469 26.960938 21.03125 26.917969 20.859375 C 26.875 20.6875 26.769531 20.308594 26.683594 20.015625 C 26.597656 19.722656 26.4375 19.246094 26.328125 18.953125 C 26.21875 18.660156 26.039062 18.203125 25.929688 17.9375 C 25.816406 17.671875 25.625 17.226562 25.496094 16.953125 C 25.371094 16.679688 25.132812 16.1875 24.96875 15.859375 C 24.800781 15.53125 24.53125 15.027344 24.367188 14.734375 C 24.203125 14.441406 23.917969 13.949219 23.734375 13.640625 C 23.546875 13.332031 23.234375 12.824219 23.039062 12.515625 C 22.839844 12.207031 22.503906 11.691406 22.289062 11.375 C 22.070312 11.058594 21.769531 10.621094 21.613281 10.40625 C 21.460938 10.191406 21.144531 9.761719 20.910156 9.453125 C 20.679688 9.144531 20.382812 8.757812 20.253906 8.59375 C 20.125 8.429688 19.863281 8.105469 19.675781 7.875 C 19.484375 7.644531 19.160156 7.257812 18.957031 7.015625 C 18.75 6.773438 18.476562 6.46875 18.34375 6.332031 L 18.109375 6.085938 L 17.917969 5.949219 C 17.8125 5.875 17.621094 5.765625 17.496094 5.707031 C 17.367188 5.648438 17.175781 5.578125 17.0625 5.546875 L 16.859375 5.492188 L 16.09375 5.480469 L 15.328125 5.472656 L 15.109375 5.515625 M 15.695312 7.820312 C 15.542969 8.015625 15.269531 8.367188 15.089844 8.609375 C 14.910156 8.851562 14.628906 9.238281 14.464844 9.46875 C 14.300781 9.699219 13.984375 10.164062 13.757812 10.5 C 13.535156 10.835938 13.234375 11.300781 13.089844 11.53125 C 12.941406 11.761719 12.710938 12.144531 12.570312 12.375 C 12.433594 12.605469 12.152344 13.09375 11.953125 13.453125 C 11.75 13.8125 11.40625 14.460938 11.183594 14.890625 C 10.964844 15.320312 10.640625 15.972656 10.46875 16.34375 C 10.292969 16.714844 10.039062 17.261719 9.90625 17.5625 C 9.773438 17.867188 9.546875 18.390625 9.410156 18.730469 C 9.269531 19.070312 9.046875 19.628906 8.917969 19.976562 C 8.789062 20.324219 8.589844 20.875 8.480469 21.203125 C 8.367188 21.53125 8.203125 22.058594 8.109375 22.375 C 8.019531 22.691406 7.933594 23.015625 7.921875 23.09375 L 7.898438 23.234375 L 8.046875 23.015625 C 8.128906 22.894531 8.316406 22.628906 8.464844 22.421875 C 8.609375 22.214844 8.835938 21.90625 8.964844 21.734375 C 9.09375 21.5625 9.367188 21.214844 9.566406 20.964844 C 9.769531 20.714844 10.09375 20.328125 10.289062 20.105469 C 10.480469 19.882812 10.84375 19.5 11.09375 19.25 C 11.34375 19 11.710938 18.65625 11.90625 18.488281 C 12.105469 18.316406 12.421875 18.0625 12.609375 17.921875 C 12.796875 17.78125 13.085938 17.585938 13.246094 17.488281 C 13.40625 17.390625 13.660156 17.25 13.808594 17.175781 C 13.957031 17.101562 14.21875 16.988281 14.390625 16.921875 C 14.5625 16.859375 14.859375 16.769531 15.046875 16.726562 L 15.390625 16.644531 L 16.578125 16.644531 L 16.898438 16.710938 C 17.074219 16.75 17.347656 16.824219 17.507812 16.878906 L 17.796875 16.972656 L 18.171875 17.15625 C 18.378906 17.257812 18.691406 17.429688 18.871094 17.542969 C 19.050781 17.660156 19.324219 17.847656 19.484375 17.96875 C 19.640625 18.085938 19.945312 18.335938 20.160156 18.523438 C 20.371094 18.714844 20.765625 19.089844 21.03125 19.363281 C 21.296875 19.636719 21.65625 20.019531 21.824219 20.21875 C 21.992188 20.417969 22.320312 20.808594 22.546875 21.09375 C 22.773438 21.378906 23.09375 21.792969 23.253906 22.015625 C 23.417969 22.238281 23.675781 22.601562 23.828125 22.820312 C 23.980469 23.039062 24.109375 23.214844 24.113281 23.207031 C 24.121094 23.203125 24.070312 22.980469 24.003906 22.714844 L 23.882812 22.234375 L 23.632812 21.484375 C 23.496094 21.070312 23.289062 20.480469 23.171875 20.171875 C 23.054688 19.863281 22.84375 19.324219 22.699219 18.976562 C 22.554688 18.628906 22.304688 18.046875 22.144531 17.679688 C 21.980469 17.316406 21.707031 16.714844 21.53125 16.34375 C 21.359375 15.972656 21.050781 15.347656 20.847656 14.953125 C 20.644531 14.558594 20.332031 13.972656 20.15625 13.65625 C 19.980469 13.339844 19.675781 12.804688 19.476562 12.46875 C 19.277344 12.132812 18.996094 11.667969 18.847656 11.4375 C 18.703125 11.207031 18.402344 10.742188 18.179688 10.40625 C 17.953125 10.070312 17.628906 9.601562 17.457031 9.359375 C 17.285156 9.117188 17.019531 8.753906 16.863281 8.546875 C 16.707031 8.339844 16.457031 8.015625 16.304688 7.820312 C 16.152344 7.628906 16.015625 7.46875 16.003906 7.46875 C 15.988281 7.46875 15.851562 7.628906 15.695312 7.820312 "/>
</g>
</svg>
